<?xml version="1.0" encoding="UTF-8"?> <!-- Generator: Adobe Illustrator 19.0.0, SVG Export Plug-In . SVG Version: 6.00 Build 0) --> <svg xmlns="http://www.w3.org/2000/svg" xmlns:xlink="http://www.w3.org/1999/xlink" id="Capa_1" x="0px" y="0px" viewBox="0 0 512 512" style="enable-background:new 0 0 512 512;" xml:space="preserve"> <g> <g> <path d="M509.804,38.931c-2.931-2.925-7.681-2.925-10.611,0L394.373,143.617l-10.611-10.599c-1.42-1.409-3.302-2.188-5.303-2.188 c-2,0-3.891,0.778-5.302,2.188c-1.42,1.418-2.201,3.297-2.201,5.295c0,2.009,0.78,3.887,2.201,5.306l11.326,11.318l-43.948,58.985 c-1.322,1.773-3.266,2.839-5.474,3c-0.88,0.068-1.739-0.023-2.557-0.249l3.085-3.085c2.929-2.929,2.929-7.678-0.001-10.606 c-2.928-2.928-7.677-2.929-10.606,0.001l-3.772,3.773l-2.681-2.677l3.775-3.775c2.929-2.93,2.929-7.678,0-10.607 c-2.93-2.928-7.678-2.928-10.607,0l-3.782,3.782l-2.68-2.678l3.783-3.782c2.93-2.929,2.93-7.678,0.001-10.606 c-2.93-2.929-7.679-2.93-10.606-0.001l-3.397,3.396c-0.451-1.068-0.653-2.235-0.565-3.445c0.161-2.205,1.228-4.146,3.004-5.467 l64.263-47.76l-0.003-0.004c0.29-0.215,0.57-0.445,0.831-0.703c0.019-0.019,0.034-0.04,0.053-0.059L472.313,12.792 c2.93-2.927,2.93-7.671,0-10.598c-2.931-2.925-7.681-2.925-10.611,0L352.315,111.443l-63.82,47.431 c-5.25,3.902-8.535,9.879-9.012,16.398c-0.476,6.519,1.905,12.909,6.533,17.531l32.584,32.543 c4.239,4.232,9.963,6.583,15.91,6.583c0.546,0,1.094-0.02,1.643-0.059c6.528-0.476,12.513-3.756,16.419-9.001l47.49-63.739 l109.74-109.602C512.732,46.602,512.732,41.858,509.804,38.931z"></path> </g> </g> <g> <g> <path d="M280.434,230.951c-18.179-18.156-43.758-25.94-68.676-21.44c-33.729-5.103-68.111,6.133-92.232,30.222L2.197,356.913 c-2.93,2.927-2.93,7.671,0,10.598c1.465,1.463,3.386,2.194,5.306,2.194s3.84-0.731,5.306-2.194l117.327-117.18 c13.031-13.013,29.549-21.663,47.218-25.218c-2.278,1.817-4.474,3.754-6.562,5.838l-68.075,67.989 c-1.581,1.579-2.371,3.756-2.171,5.974c2.031,22.52,10.494,43.892,24.488,61.775c2.605,3.306,7.313,3.805,10.534,1.289 c3.279-2.559,3.85-7.239,1.3-10.521c-11.464-14.657-18.727-32.101-21.007-50.455l65.535-65.451 c24.401-24.37,63.925-24.466,88.422,0c24.603,24.594,24.15,64.17,0,88.312l-66.304,66.22 c-16.816-2.378-32.952-9.011-46.678-19.163c-3.37-2.511-8.068-1.713-10.493,1.548c-2.46,3.317-1.761,8.023,1.561,10.481 c16.846,12.489,36.744,20.251,57.531,22.47c0.261,0.029,0.53,0.04,0.801,0.04c2,0,3.881-0.78,5.302-2.198l68.895-68.799 c2.072-2.069,3.997-4.245,5.802-6.504c-3.571,17.615-12.226,34.076-25.236,47.07l-118.328,118.18c-2.93,2.927-2.93,7.671,0,10.598 c1.465,1.462,3.386,2.194,5.306,2.194c1.919,0,3.84-0.732,5.306-2.194l118.329-118.18c24.135-24.105,35.382-58.471,30.253-92.174 C306.317,274.62,298.602,249.097,280.434,230.951z"></path> </g> </g> <g> <g> <path d="M97.037,487.186c-32.138-13.487-58.2-39.688-71.504-71.888c-1.581-3.828-5.967-5.647-9.796-4.067 c-3.828,1.582-5.649,5.968-4.067,9.796c14.804,35.828,43.804,64.983,79.563,79.991c0.948,0.397,1.932,0.586,2.899,0.586 c2.93,0,5.714-1.729,6.919-4.6C102.653,493.185,100.857,488.789,97.037,487.186z"></path> </g> </g> <g> </g> <g> </g> <g> </g> <g> </g> <g> </g> <g> </g> <g> </g> <g> </g> <g> </g> <g> </g> <g> </g> <g> </g> <g> </g> <g> </g> <g> </g> </svg> 